<?xml version="1.0" standalone="no"?>
<!DOCTYPE svg PUBLIC "-//W3C//DTD SVG 20010904//EN"
 "http://www.w3.org/TR/2001/REC-SVG-20010904/DTD/svg10.dtd">
<svg version="1.0" xmlns="http://www.w3.org/2000/svg"
 width="120.000000pt" height="120.000000pt" viewBox="0 0 120.000000 120.000000"
 preserveAspectRatio="xMidYMid meet">
<metadata>
Created by potrace 1.14, written by Peter Selinger 2001-2017
</metadata>
<g transform="translate(0.000000,120.000000) scale(0.100000,-0.100000)"
fill="#000000" stroke="none">
<path d="M519 1157 c-79 -13 -153 -40 -194 -70 -22 -16 -54 -37 -72 -47 -17
-10 -47 -44 -67 -74 -19 -30 -44 -60 -55 -66 -12 -6 -21 -16 -21 -22 0 -9 3
-9 12 0 21 21 27 13 16 -19 -6 -16 -8 -32 -6 -35 3 -2 11 16 18 40 10 37 18
47 49 59 20 8 37 14 39 12 1 -1 -3 -25 -10 -54 -10 -46 -16 -54 -47 -67 -19
-8 -39 -13 -44 -11 -6 2 -21 -7 -35 -20 -30 -28 -36 -25 -22 12 6 15 9 30 6
32 -8 8 -45 -123 -52 -183 -14 -132 42 -305 133 -411 62 -73 134 -126 224
-165 70 -30 81 -32 204 -32 121 -1 135 1 205 28 185 73 323 237 360 429 15 82
9 107 -30 129 -32 18 -32 43 0 35 25 -6 35 49 17 94 -8 19 -17 43 -21 53 -6
19 -7 19 -21 0 -13 -18 -14 -18 -24 9 -6 15 -14 40 -17 54 -6 23 -4 25 12 19
12 -4 9 1 -9 16 -15 13 -42 45 -60 73 -21 33 -48 58 -77 73 -25 13 -56 34 -70
46 -58 51 -229 83 -341 63z m128 -34 c3 -7 -14 -12 -47 -15 -27 -1 -50 -2 -50
-1 0 24 17 34 53 31 22 -2 42 -8 44 -15z m79 -14 l39 -7 -45 1 c-36 2 -45 6
-48 22 -2 15 -1 17 6 6 6 -8 27 -17 48 -22z m-196 5 c0 -8 -5 -12 -10 -9 -6 4
-8 11 -5 16 9 14 15 11 15 -7z m-42 -11 c-10 -2 -26 -2 -35 0 -10 3 -2 5 17 5
19 0 27 -2 18 -5z m25 -93 c-4 -4 -34 -10 -66 -13 -52 -5 -58 -4 -52 11 4 9
11 29 17 44 8 23 16 27 56 30 47 3 47 3 50 -31 2 -18 0 -37 -5 -41z m147 63
c0 -10 3 -28 6 -40 6 -22 4 -23 -60 -23 l-66 0 0 33 c0 19 3 37 7 40 3 4 30 7
60 7 44 0 53 -3 53 -17z m137 -37 c7 -22 12 -40 11 -41 -2 -2 -28 0 -60 2 -59
6 -67 14 -68 68 0 19 5 20 52 15 49 -5 52 -7 65 -44z m-410 -2 c-12 -39 -24
-48 -79 -58 l-37 -7 22 39 c19 36 42 50 99 61 3 0 1 -15 -5 -35z m524 -26 c19
-37 19 -39 2 -35 -10 3 -32 8 -50 12 -24 5 -34 14 -42 37 -16 45 -15 47 29 36
33 -9 45 -18 61 -50z m42 13 c19 -7 76 -81 63 -81 -27 0 -66 27 -79 55 -18 39
-18 39 16 26z m-443 -90 c0 -67 -5 -71 -92 -71 -53 0 -53 0 -40 75 7 39 8 40
57 46 28 3 56 7 63 7 8 2 12 -16 12 -57z m160 37 c0 -13 3 -40 6 -60 l7 -38
-77 0 -76 0 0 60 0 60 70 0 c66 0 70 -1 70 -22z m126 7 c16 -4 23 -16 31 -61
l10 -57 -65 6 c-36 4 -67 9 -70 12 -3 3 -7 29 -10 59 l-4 54 43 -4 c24 -3 53
-7 65 -9z m-430 -22 c-2 -10 -7 -37 -11 -59 -6 -41 -7 -42 -62 -53 -31 -6 -57
-10 -59 -8 -1 1 3 27 10 57 12 54 13 55 57 67 62 16 71 16 65 -4z m553 -3 c20
-5 28 -17 38 -56 7 -27 13 -52 13 -55 0 -8 -103 10 -111 19 -4 4 -10 31 -14
60 l-7 53 29 -7 c15 -4 39 -10 52 -14z m-699 6 c0 -2 -7 -7 -16 -10 -8 -3 -12
-2 -9 4 6 10 25 14 25 6z m794 -38 c25 -12 43 -25 40 -30 -3 -5 0 -24 6 -44 7
-19 10 -37 8 -39 -2 -3 -20 1 -40 7 -33 10 -37 15 -51 69 -8 33 -13 59 -11 59
2 0 24 -10 48 -22z m-504 -138 c0 -80 3 -77 -87 -82 l-63 -4 0 72 0 73 38 4
c20 2 54 4 75 5 l37 2 0 -70z m170 0 l0 -70 -81 0 -82 0 7 46 c3 26 6 57 6 70
0 23 3 24 75 24 l75 0 0 -70z m128 60 l32 0 0 -70 0 -71 -67 3 -68 3 -3 74 -3
74 38 -7 c21 -3 53 -6 71 -6z m-462 -56 c-3 -26 -6 -57 -6 -70 0 -19 -7 -23
-42 -29 -24 -3 -51 -9 -60 -11 -16 -5 -18 1 -17 43 2 95 14 108 103 112 29 1
29 1 22 -45z m617 30 c12 -4 17 -16 17 -39 0 -27 -6 -37 -30 -52 -16 -9 -30
-21 -30 -25 0 -4 -13 -8 -30 -8 l-30 0 0 71 0 71 43 -7 c23 -3 50 -9 60 -11z
m-753 -73 c0 -68 0 -69 -31 -80 -55 -19 -59 -16 -60 47 -1 43 -3 50 -8 27 -3
-16 -10 -29 -14 -27 -4 1 -11 2 -17 2 -16 0 -12 26 8 43 9 8 40 24 67 35 28
11 51 20 53 21 1 1 2 -30 2 -68z m862 25 c4 -6 8 -35 8 -65 l0 -54 -20 26
c-21 27 -26 62 -10 72 16 10 12 21 -12 34 -23 11 -23 11 2 5 14 -4 28 -12 32
-18z m-94 -111 c2 -2 1 -12 -2 -23 -6 -17 -12 -18 -52 -11 -26 5 -50 6 -55 3
-5 -3 -9 7 -9 21 0 26 0 26 58 19 31 -3 59 -8 60 -9z m-401 -527 c-3 -8 -6 -5
-6 6 -1 11 2 17 5 13 3 -3 4 -12 1 -19z"/>
</g>
</svg>
